<svg xmlns="http://www.w3.org/2000/svg" version="1.1" xmlns:xlink="http://www.w3.org/1999/xlink" xmlns:svgjs="http://svgjs.dev/svgjs" width="1440" height="560" preserveAspectRatio="none" viewBox="0 0 1440 560"><g mask="url(&quot;#SvgjsMask2260&quot;)" fill="none"><rect width="1440" height="560" x="0" y="0" fill="rgba(255, 255, 255, 1)"></rect><use xlink:href="#SvgjsG2265" transform="translate(0, 0)" fill="rgba(143, 142, 142, 0.15)"></use><use xlink:href="#SvgjsG2265" transform="translate(608, 0)" fill="rgba(143, 142, 142, 0.15)"></use><use xlink:href="#SvgjsG2265" transform="translate(1216, 0)" fill="rgba(143, 142, 142, 0.15)"></use></g><defs><mask id="SvgjsMask2260"><rect width="1440" height="560" fill="#ffffff"></rect></mask><g id="SvgjsG2261"><path d="M8.541 10.856h1.001v1H8.541zM8.243 14.859H10.041v-2.002h-2.001v2.002h0.201z"></path><path d="M14.225 9.282V3.277l-2.788 1.716v2.573h-1.067V4.125h-1.293V1.132h-3.432v4.899h-1.716v-1.682L2.536 3.492 1.142 4.349v3.003H0.07v7.507h3.216V9.103a1.501 1.501 0 0 1 3.004 0v1.184l-1.131 2.874h0.702v1.698h0.429v-2.127h-0.501l0.844-2.146 2.408-0.982 2.409 0.982 0.845 2.146h-0.501v2.127h0.846l2.872-0.001V9.282h-1.287z"></path></g><g id="SvgjsG2262"><path d="M7.945 2.35L0 7.479h1.862V13.677H6.372V8.755h3.134V13.677h4.513V7.479H15.874L7.945 2.35z" fill-rule="evenodd"></path></g><g id="SvgjsG2263"><path d="M14.225 3.277L11.437 4.993v2.573h-1.067V4.125h-1.292V1.133h-3.432v4.899h-1.716v-1.683L2.536 3.492 1.142 4.349v3.003H0.07v7.507l15.442-0.001V9.282h-1.287V3.277z" fill-rule="evenodd"></path></g><g id="SvgjsG2264"><path d="M5.741 11.464a1.129 1.129 0 0 0 1.129-1.128 1.129 1.129 0 0 0-2.258 0 1.129 1.129 0 0 0 1.129 1.128z m9.513-1.61a0.897 0.897 0 0 1 0.899 0.89l0.004 2.371H9.149V9.854h6.105z"></path><path d="M1.623 15.405h14.538V13.896H3.132V8.18L16.161 2.293V0.727L0 8.022v1.57l1.623-0.728z"></path><path d="M7.424 12.003h-2.025a0.558 0.558 0 0 0-0.556 0.558c0 0.304 0.249 0.554 0.556 0.554h2.578a0.557 0.557 0 0 0 0.556-0.554V10.327a0.555 0.555 0 0 0-1.111 0l0.002 1.676z"></path></g><g id="SvgjsG2265"><use xlink:href="#SvgjsG2261" transform="translate(0, 0) scale(1.6)" fill="rgba(143, 142, 142, 0.15)"></use><use xlink:href="#SvgjsG2262" transform="translate(0, 60.800000000000004) scale(1.6)" fill="rgba(143, 142, 142, 0.15)"></use><use xlink:href="#SvgjsG2263" transform="translate(0, 121.60000000000001) scale(1.6)" fill="rgba(143, 142, 142, 0.15)"></use><use xlink:href="#SvgjsG2264" transform="translate(0, 182.4) scale(1.6)" fill="rgba(143, 142, 142, 0.15)"></use><use xlink:href="#SvgjsG2261" transform="translate(0, 243.20000000000002) scale(1.6)" fill="rgba(143, 142, 142, 0.15)"></use><use xlink:href="#SvgjsG2262" transform="translate(0, 304) scale(1.6)" fill="rgba(143, 142, 142, 0.15)"></use><use xlink:href="#SvgjsG2263" transform="translate(0, 364.8) scale(1.6)" fill="rgba(143, 142, 142, 0.15)"></use><use xlink:href="#SvgjsG2264" transform="translate(0, 425.6) scale(1.6)" fill="rgba(143, 142, 142, 0.15)"></use><use xlink:href="#SvgjsG2261" transform="translate(0, 486.40000000000003) scale(1.6)" fill="rgba(143, 142, 142, 0.15)"></use><use xlink:href="#SvgjsG2262" transform="translate(0, 547.2) scale(1.6)" fill="rgba(143, 142, 142, 0.15)"></use><use xlink:href="#SvgjsG2262" transform="translate(60.800000000000004, 0) scale(1.6)" fill="rgba(143, 142, 142, 0.15)"></use><use xlink:href="#SvgjsG2263" transform="translate(60.800000000000004, 60.800000000000004) scale(1.6)" fill="rgba(143, 142, 142, 0.15)"></use><use xlink:href="#SvgjsG2264" transform="translate(60.800000000000004, 121.60000000000001) scale(1.6)" fill="rgba(143, 142, 142, 0.15)"></use><use xlink:href="#SvgjsG2261" transform="translate(60.800000000000004, 182.4) scale(1.6)" fill="rgba(143, 142, 142, 0.15)"></use><use xlink:href="#SvgjsG2262" transform="translate(60.800000000000004, 243.20000000000002) scale(1.6)" fill="rgba(143, 142, 142, 0.15)"></use><use xlink:href="#SvgjsG2263" transform="translate(60.800000000000004, 304) scale(1.6)" fill="rgba(143, 142, 142, 0.15)"></use><use xlink:href="#SvgjsG2264" transform="translate(60.800000000000004, 364.8) scale(1.6)" fill="rgba(143, 142, 142, 0.15)"></use><use xlink:href="#SvgjsG2261" transform="translate(60.800000000000004, 425.6) scale(1.6)" fill="rgba(143, 142, 142, 0.15)"></use><use xlink:href="#SvgjsG2262" transform="translate(60.800000000000004, 486.40000000000003) scale(1.6)" fill="rgba(143, 142, 142, 0.15)"></use><use xlink:href="#SvgjsG2263" transform="translate(60.800000000000004, 547.2) scale(1.6)" fill="rgba(143, 142, 142, 0.15)"></use><use xlink:href="#SvgjsG2263" transform="translate(121.60000000000001, 0) scale(1.6)" fill="rgba(143, 142, 142, 0.15)"></use><use xlink:href="#SvgjsG2264" transform="translate(121.60000000000001, 60.800000000000004) scale(1.6)" fill="rgba(143, 142, 142, 0.15)"></use><use xlink:href="#SvgjsG2261" transform="translate(121.60000000000001, 121.60000000000001) scale(1.6)" fill="rgba(143, 142, 142, 0.15)"></use><use xlink:href="#SvgjsG2262" transform="translate(121.60000000000001, 182.4) scale(1.6)" fill="rgba(143, 142, 142, 0.15)"></use><use xlink:href="#SvgjsG2263" transform="translate(121.60000000000001, 243.20000000000002) scale(1.6)" fill="rgba(143, 142, 142, 0.15)"></use><use xlink:href="#SvgjsG2264" transform="translate(121.60000000000001, 304) scale(1.6)" fill="rgba(143, 142, 142, 0.15)"></use><use xlink:href="#SvgjsG2261" transform="translate(121.60000000000001, 364.8) scale(1.6)" fill="rgba(143, 142, 142, 0.15)"></use><use xlink:href="#SvgjsG2262" transform="translate(121.60000000000001, 425.6) scale(1.6)" fill="rgba(143, 142, 142, 0.15)"></use><use xlink:href="#SvgjsG2263" transform="translate(121.60000000000001, 486.40000000000003) scale(1.6)" fill="rgba(143, 142, 142, 0.15)"></use><use xlink:href="#SvgjsG2264" transform="translate(121.60000000000001, 547.2) scale(1.6)" fill="rgba(143, 142, 142, 0.15)"></use><use xlink:href="#SvgjsG2264" transform="translate(182.4, 0) scale(1.6)" fill="rgba(143, 142, 142, 0.15)"></use><use xlink:href="#SvgjsG2261" transform="translate(182.4, 60.800000000000004) scale(1.6)" fill="rgba(143, 142, 142, 0.15)"></use><use xlink:href="#SvgjsG2262" transform="translate(182.4, 121.60000000000001) scale(1.6)" fill="rgba(143, 142, 142, 0.15)"></use><use xlink:href="#SvgjsG2263" transform="translate(182.4, 182.4) scale(1.6)" fill="rgba(143, 142, 142, 0.15)"></use><use xlink:href="#SvgjsG2264" transform="translate(182.4, 243.20000000000002) scale(1.6)" fill="rgba(143, 142, 142, 0.15)"></use><use xlink:href="#SvgjsG2261" transform="translate(182.4, 304) scale(1.6)" fill="rgba(143, 142, 142, 0.15)"></use><use xlink:href="#SvgjsG2262" transform="translate(182.4, 364.8) scale(1.6)" fill="rgba(143, 142, 142, 0.15)"></use><use xlink:href="#SvgjsG2263" transform="translate(182.4, 425.6) scale(1.6)" fill="rgba(143, 142, 142, 0.15)"></use><use xlink:href="#SvgjsG2264" transform="translate(182.4, 486.40000000000003) scale(1.6)" fill="rgba(143, 142, 142, 0.15)"></use><use xlink:href="#SvgjsG2261" transform="translate(182.4, 547.2) scale(1.6)" fill="rgba(143, 142, 142, 0.15)"></use><use xlink:href="#SvgjsG2261" transform="translate(243.20000000000002, 0) scale(1.6)" fill="rgba(143, 142, 142, 0.15)"></use><use xlink:href="#SvgjsG2262" transform="translate(243.20000000000002, 60.800000000000004) scale(1.6)" fill="rgba(143, 142, 142, 0.15)"></use><use xlink:href="#SvgjsG2263" transform="translate(243.20000000000002, 121.60000000000001) scale(1.6)" fill="rgba(143, 142, 142, 0.15)"></use><use xlink:href="#SvgjsG2264" transform="translate(243.20000000000002, 182.4) scale(1.6)" fill="rgba(143, 142, 142, 0.15)"></use><use xlink:href="#SvgjsG2261" transform="translate(243.20000000000002, 243.20000000000002) scale(1.6)" fill="rgba(143, 142, 142, 0.15)"></use><use xlink:href="#SvgjsG2262" transform="translate(243.20000000000002, 304) scale(1.6)" fill="rgba(143, 142, 142, 0.15)"></use><use xlink:href="#SvgjsG2263" transform="translate(243.20000000000002, 364.8) scale(1.6)" fill="rgba(143, 142, 142, 0.15)"></use><use xlink:href="#SvgjsG2264" transform="translate(243.20000000000002, 425.6) scale(1.6)" fill="rgba(143, 142, 142, 0.15)"></use><use xlink:href="#SvgjsG2261" transform="translate(243.20000000000002, 486.40000000000003) scale(1.6)" fill="rgba(143, 142, 142, 0.15)"></use><use xlink:href="#SvgjsG2262" transform="translate(243.20000000000002, 547.2) scale(1.6)" fill="rgba(143, 142, 142, 0.15)"></use><use xlink:href="#SvgjsG2262" transform="translate(304, 0) scale(1.6)" fill="rgba(143, 142, 142, 0.15)"></use><use xlink:href="#SvgjsG2263" transform="translate(304, 60.800000000000004) scale(1.6)" fill="rgba(143, 142, 142, 0.15)"></use><use xlink:href="#SvgjsG2264" transform="translate(304, 121.60000000000001) scale(1.6)" fill="rgba(143, 142, 142, 0.15)"></use><use xlink:href="#SvgjsG2261" transform="translate(304, 182.4) scale(1.6)" fill="rgba(143, 142, 142, 0.15)"></use><use xlink:href="#SvgjsG2262" transform="translate(304, 243.20000000000002) scale(1.6)" fill="rgba(143, 142, 142, 0.15)"></use><use xlink:href="#SvgjsG2263" transform="translate(304, 304) scale(1.6)" fill="rgba(143, 142, 142, 0.15)"></use><use xlink:href="#SvgjsG2264" transform="translate(304, 364.8) scale(1.6)" fill="rgba(143, 142, 142, 0.15)"></use><use xlink:href="#SvgjsG2261" transform="translate(304, 425.6) scale(1.6)" fill="rgba(143, 142, 142, 0.15)"></use><use xlink:href="#SvgjsG2262" transform="translate(304, 486.40000000000003) scale(1.6)" fill="rgba(143, 142, 142, 0.15)"></use><use xlink:href="#SvgjsG2263" transform="translate(304, 547.2) scale(1.6)" fill="rgba(143, 142, 142, 0.15)"></use><use xlink:href="#SvgjsG2263" transform="translate(364.8, 0) scale(1.6)" fill="rgba(143, 142, 142, 0.15)"></use><use xlink:href="#SvgjsG2264" transform="translate(364.8, 60.800000000000004) scale(1.6)" fill="rgba(143, 142, 142, 0.15)"></use><use xlink:href="#SvgjsG2261" transform="translate(364.8, 121.60000000000001) scale(1.6)" fill="rgba(143, 142, 142, 0.15)"></use><use xlink:href="#SvgjsG2262" transform="translate(364.8, 182.4) scale(1.6)" fill="rgba(143, 142, 142, 0.15)"></use><use xlink:href="#SvgjsG2263" transform="translate(364.8, 243.20000000000002) scale(1.6)" fill="rgba(143, 142, 142, 0.15)"></use><use xlink:href="#SvgjsG2264" transform="translate(364.8, 304) scale(1.6)" fill="rgba(143, 142, 142, 0.15)"></use><use xlink:href="#SvgjsG2261" transform="translate(364.8, 364.8) scale(1.6)" fill="rgba(143, 142, 142, 0.15)"></use><use xlink:href="#SvgjsG2262" transform="translate(364.8, 425.6) scale(1.6)" fill="rgba(143, 142, 142, 0.15)"></use><use xlink:href="#SvgjsG2263" transform="translate(364.8, 486.40000000000003) scale(1.6)" fill="rgba(143, 142, 142, 0.15)"></use><use xlink:href="#SvgjsG2264" transform="translate(364.8, 547.2) scale(1.6)" fill="rgba(143, 142, 142, 0.15)"></use><use xlink:href="#SvgjsG2264" transform="translate(425.6, 0) scale(1.6)" fill="rgba(143, 142, 142, 0.15)"></use><use xlink:href="#SvgjsG2261" transform="translate(425.6, 60.800000000000004) scale(1.6)" fill="rgba(143, 142, 142, 0.15)"></use><use xlink:href="#SvgjsG2262" transform="translate(425.6, 121.60000000000001) scale(1.6)" fill="rgba(143, 142, 142, 0.15)"></use><use xlink:href="#SvgjsG2263" transform="translate(425.6, 182.4) scale(1.6)" fill="rgba(143, 142, 142, 0.15)"></use><use xlink:href="#SvgjsG2264" transform="translate(425.6, 243.20000000000002) scale(1.6)" fill="rgba(143, 142, 142, 0.15)"></use><use xlink:href="#SvgjsG2261" transform="translate(425.6, 304) scale(1.6)" fill="rgba(143, 142, 142, 0.15)"></use><use xlink:href="#SvgjsG2262" transform="translate(425.6, 364.8) scale(1.6)" fill="rgba(143, 142, 142, 0.15)"></use><use xlink:href="#SvgjsG2263" transform="translate(425.6, 425.6) scale(1.6)" fill="rgba(143, 142, 142, 0.15)"></use><use xlink:href="#SvgjsG2264" transform="translate(425.6, 486.40000000000003) scale(1.6)" fill="rgba(143, 142, 142, 0.15)"></use><use xlink:href="#SvgjsG2261" transform="translate(425.6, 547.2) scale(1.6)" fill="rgba(143, 142, 142, 0.15)"></use><use xlink:href="#SvgjsG2261" transform="translate(486.40000000000003, 0) scale(1.6)" fill="rgba(143, 142, 142, 0.15)"></use><use xlink:href="#SvgjsG2262" transform="translate(486.40000000000003, 60.800000000000004) scale(1.6)" fill="rgba(143, 142, 142, 0.15)"></use><use xlink:href="#SvgjsG2263" transform="translate(486.40000000000003, 121.60000000000001) scale(1.6)" fill="rgba(143, 142, 142, 0.15)"></use><use xlink:href="#SvgjsG2264" transform="translate(486.40000000000003, 182.4) scale(1.6)" fill="rgba(143, 142, 142, 0.15)"></use><use xlink:href="#SvgjsG2261" transform="translate(486.40000000000003, 243.20000000000002) scale(1.6)" fill="rgba(143, 142, 142, 0.15)"></use><use xlink:href="#SvgjsG2262" transform="translate(486.40000000000003, 304) scale(1.6)" fill="rgba(143, 142, 142, 0.15)"></use><use xlink:href="#SvgjsG2263" transform="translate(486.40000000000003, 364.8) scale(1.6)" fill="rgba(143, 142, 142, 0.15)"></use><use xlink:href="#SvgjsG2264" transform="translate(486.40000000000003, 425.6) scale(1.6)" fill="rgba(143, 142, 142, 0.15)"></use><use xlink:href="#SvgjsG2261" transform="translate(486.40000000000003, 486.40000000000003) scale(1.6)" fill="rgba(143, 142, 142, 0.15)"></use><use xlink:href="#SvgjsG2262" transform="translate(486.40000000000003, 547.2) scale(1.6)" fill="rgba(143, 142, 142, 0.15)"></use><use xlink:href="#SvgjsG2262" transform="translate(547.2, 0) scale(1.6)" fill="rgba(143, 142, 142, 0.15)"></use><use xlink:href="#SvgjsG2263" transform="translate(547.2, 60.800000000000004) scale(1.6)" fill="rgba(143, 142, 142, 0.15)"></use><use xlink:href="#SvgjsG2264" transform="translate(547.2, 121.60000000000001) scale(1.6)" fill="rgba(143, 142, 142, 0.15)"></use><use xlink:href="#SvgjsG2261" transform="translate(547.2, 182.4) scale(1.6)" fill="rgba(143, 142, 142, 0.15)"></use><use xlink:href="#SvgjsG2262" transform="translate(547.2, 243.20000000000002) scale(1.6)" fill="rgba(143, 142, 142, 0.15)"></use><use xlink:href="#SvgjsG2263" transform="translate(547.2, 304) scale(1.6)" fill="rgba(143, 142, 142, 0.15)"></use><use xlink:href="#SvgjsG2264" transform="translate(547.2, 364.8) scale(1.6)" fill="rgba(143, 142, 142, 0.15)"></use><use xlink:href="#SvgjsG2261" transform="translate(547.2, 425.6) scale(1.6)" fill="rgba(143, 142, 142, 0.15)"></use><use xlink:href="#SvgjsG2262" transform="translate(547.2, 486.40000000000003) scale(1.6)" fill="rgba(143, 142, 142, 0.15)"></use><use xlink:href="#SvgjsG2263" transform="translate(547.2, 547.2) scale(1.6)" fill="rgba(143, 142, 142, 0.15)"></use></g></defs></svg>